<svg width="44" height="44" viewBox="0 0 44 44" fill="none" xmlns="http://www.w3.org/2000/svg">
<rect width="44" height="44" rx="9" fill="#F5F5F5"/>
<path d="M19.6667 20.7222H11.1112C10.5279 20.7222 10.0556 20.25 10.0556 19.6667V14.2222C10.0556 13.6389 10.5279 13.1667 11.1112 13.1667H19.6667C20.25 13.1667 20.7223 13.6389 20.7223 14.2222V19.6667C20.7223 20.25 20.25 20.7222 19.6667 20.7222Z" stroke="#2B78D4"/>
<path d="M32.8889 20.7222H24.3334C23.7501 20.7222 23.2778 20.25 23.2778 19.6667V14.2222C23.2778 13.6389 23.7501 13.1667 24.3334 13.1667H32.8889C33.4722 13.1667 33.9445 13.6389 33.9445 14.2222V19.6667C33.9445 20.25 33.4722 20.7222 32.8889 20.7222Z" stroke="#D4962B"/>
<path d="M19.6667 30.8334H11.1112C10.5279 30.8334 10.0556 30.3611 10.0556 29.7778V24.3334C10.0556 23.7501 10.5279 23.2778 11.1112 23.2778H19.6667C20.25 23.2778 20.7223 23.7501 20.7223 24.3334V29.7778C20.7223 30.3611 20.25 30.8334 19.6667 30.8334Z" stroke="#D4962B"/>
<path d="M32.8889 30.8334H24.3334C23.7501 30.8334 23.2778 30.3611 23.2778 29.7778V24.3334C23.2778 23.7501 23.7501 23.2778 24.3334 23.2778H32.8889C33.4722 23.2778 33.9445 23.7501 33.9445 24.3334V29.7778C33.9445 30.3611 33.4722 30.8334 32.8889 30.8334Z" stroke="#2B78D4"/>
</svg>
