<svg width="88" height="88" viewBox="0 0 88 88" fill="none" xmlns="http://www.w3.org/2000/svg">
<g filter="url(#filter0_dd_2_25)">
<rect x="18" y="18" width="52" height="52" rx="12" fill="#2B78D4"/>
</g>
<path d="M33.7584 40.6666H46.4334V39H33.7584L36.8501 35.8916C36.9272 35.8139 36.9883 35.7218 37.0299 35.6205C37.0714 35.5192 37.0926 35.4107 37.0922 35.3012C37.0918 35.1917 37.0699 35.0833 37.0276 34.9823C36.9853 34.8813 36.9236 34.7896 36.8459 34.7125C36.7682 34.6353 36.6761 34.5742 36.5748 34.5327C36.4735 34.4911 36.365 34.4699 36.2555 34.4703C36.146 34.4707 36.0376 34.4927 35.9366 34.5349C35.8356 34.5772 35.7439 34.6389 35.6667 34.7166L30.5751 39.8333L35.6667 44.95C35.7408 45.0377 35.8323 45.1091 35.9353 45.1599C36.0383 45.2106 36.1507 45.2395 36.2654 45.2447C36.3801 45.2499 36.4947 45.2314 36.6019 45.1902C36.7091 45.1491 36.8066 45.0862 36.8884 45.0056C36.9702 44.925 37.0344 44.8284 37.0771 44.7217C37.1197 44.6151 37.1399 44.5009 37.1363 44.3861C37.1327 44.2713 37.1054 44.1585 37.0561 44.0548C37.0069 43.9511 36.9367 43.8586 36.8501 43.7833L33.7584 40.6666Z" fill="white"/>
<path d="M50.6667 39H48.1667V40.6666H50.6667V39Z" fill="#D4962B"/>
<path d="M54 39H52.3333V40.6666H54V39Z" fill="#D4962B"/>
<path d="M52.2667 43.8834C52.1895 43.8057 52.0978 43.7439 51.9968 43.7017C51.8958 43.6594 51.7875 43.6375 51.678 43.6371C51.5685 43.6367 51.46 43.6579 51.3587 43.6994C51.2574 43.741 51.1652 43.8021 51.0875 43.8792C51.0098 43.9564 50.9481 44.0481 50.9058 44.1491C50.8636 44.2501 50.8416 44.3584 50.8412 44.4679C50.8408 44.5774 50.862 44.6859 50.9036 44.7872C50.9451 44.8885 51.0062 44.9807 51.0834 45.0584L54.175 48.1667H41.5V49.8334H54.175L51.0834 52.95C50.9967 53.0254 50.9265 53.1178 50.8773 53.2215C50.828 53.3253 50.8008 53.4381 50.7972 53.5528C50.7936 53.6676 50.8137 53.7819 50.8564 53.8885C50.899 53.9951 50.9633 54.0918 51.045 54.1724C51.1268 54.253 51.2243 54.3158 51.3316 54.357C51.4388 54.3981 51.5533 54.4167 51.668 54.4114C51.7827 54.4062 51.8951 54.3773 51.9981 54.3266C52.1012 54.2759 52.1926 54.2044 52.2667 54.1167L57.3334 49L52.2667 43.8834Z" fill="white"/>
<path d="M39.8333 48.1667H37.3333V49.8333H39.8333V48.1667Z" fill="#D4962B"/>
<path d="M35.6667 48.1667H34V49.8333H35.6667V48.1667Z" fill="#D4962B"/>
<defs>
<filter id="filter0_dd_2_25" x="0" y="0" width="88" height="88" filterUnits="userSpaceOnUse" color-interpolation-filters="sRGB">
<feFlood flood-opacity="0" result="BackgroundImageFix"/>
<feColorMatrix in="SourceAlpha" type="matrix" values="0 0 0 0 0 0 0 0 0 0 0 0 0 0 0 0 0 0 127 0" result="hardAlpha"/>
<feOffset dx="6" dy="6"/>
<feGaussianBlur stdDeviation="6"/>
<feColorMatrix type="matrix" values="0 0 0 0 0 0 0 0 0 0 0 0 0 0 0 0 0 0 0.12 0"/>
<feBlend mode="normal" in2="BackgroundImageFix" result="effect1_dropShadow_2_25"/>
<feColorMatrix in="SourceAlpha" type="matrix" values="0 0 0 0 0 0 0 0 0 0 0 0 0 0 0 0 0 0 127 0" result="hardAlpha"/>
<feOffset dx="-6" dy="-6"/>
<feGaussianBlur stdDeviation="6"/>
<feColorMatrix type="matrix" values="0 0 0 0 0 0 0 0 0 0 0 0 0 0 0 0 0 0 0.12 0"/>
<feBlend mode="normal" in2="effect1_dropShadow_2_25" result="effect2_dropShadow_2_25"/>
<feBlend mode="normal" in="SourceGraphic" in2="effect2_dropShadow_2_25" result="shape"/>
</filter>
</defs>
</svg>
