<svg width="28" height="28" viewBox="0 0 28 28" fill="none" xmlns="http://www.w3.org/2000/svg">
<path d="M20.6427 16.1931C20.6427 16.0115 20.5706 15.8374 20.4422 15.7091C20.3139 15.5807 20.1398 15.5086 19.9583 15.5086H16.1394L16.9949 14.6531C17.1228 14.5241 17.1943 14.3497 17.1935 14.1681C17.1928 13.9865 17.12 13.8126 16.991 13.6847C16.8621 13.5568 16.6877 13.4854 16.5061 13.4861C16.3245 13.4868 16.1506 13.5597 16.0227 13.6886L13.526 16.1931L16.0227 18.6664C16.086 18.7302 16.1613 18.781 16.2442 18.8157C16.3272 18.8505 16.4161 18.8685 16.5061 18.8689C16.596 18.8692 16.6851 18.8519 16.7683 18.8178C16.8515 18.7837 16.9272 18.7336 16.991 18.6703C17.0549 18.607 17.1056 18.5317 17.1403 18.4487C17.1751 18.3658 17.1932 18.2768 17.1935 18.1869C17.1939 18.097 17.1765 18.0079 17.1425 17.9247C17.1084 17.8415 17.0582 17.7658 16.9949 17.7019L16.1471 16.8775H19.9583C20.1398 16.8775 20.3139 16.8054 20.4422 16.677C20.5706 16.5487 20.6427 16.3746 20.6427 16.1931V16.1931Z" fill="#D4962B"/>
<path d="M22.7656 16.8775C22.9471 16.8775 23.1212 16.8054 23.2496 16.677C23.3779 16.5486 23.45 16.3746 23.45 16.193C23.45 16.0115 23.3779 15.8374 23.2496 15.7091C23.1212 15.5807 22.9471 15.5086 22.7656 15.5086H22.3145C22.133 15.5086 21.9589 15.5807 21.8305 15.7091C21.7021 15.8374 21.63 16.0115 21.63 16.193C21.63 16.3746 21.7021 16.5486 21.8305 16.677C21.9589 16.8054 22.133 16.8775 22.3145 16.8775H22.7656Z" fill="#D4962B"/>
<path d="M25.0521 15.5552H25.0054C24.9166 15.5552 24.8287 15.573 24.7469 15.6077C24.6652 15.6423 24.5912 15.6931 24.5295 15.757C24.4678 15.8209 24.4196 15.8966 24.3878 15.9795C24.356 16.0624 24.3412 16.1509 24.3443 16.2396C24.3504 16.4233 24.4276 16.5974 24.5597 16.7251C24.6918 16.8528 24.8684 16.9242 25.0521 16.9241C25.2336 16.9241 25.4077 16.852 25.5361 16.7236C25.6644 16.5953 25.7365 16.4212 25.7365 16.2396C25.7365 16.0581 25.6644 15.884 25.5361 15.7557C25.4077 15.6273 25.2336 15.5552 25.0521 15.5552V15.5552Z" fill="#D4962B"/>
<path d="M25.3477 8.55606C25.2198 8.42714 25.0459 8.3543 24.8643 8.35357C24.6827 8.35284 24.5083 8.42428 24.3794 8.55217C24.2504 8.68006 24.1776 8.85393 24.1769 9.03553C24.1761 9.21713 24.2476 9.39158 24.3755 9.5205L25.231 10.3761H21.4121C21.2306 10.3761 21.0565 10.4482 20.9282 10.5765C20.7998 10.7049 20.7277 10.879 20.7277 11.0605C20.7277 11.242 20.7998 11.4161 20.9282 11.5445C21.0565 11.6728 21.2306 11.7449 21.4121 11.7449H25.2232L24.3755 12.5927C24.2476 12.7217 24.1761 12.8961 24.1769 13.0777C24.1776 13.2593 24.2504 13.4332 24.3794 13.5611C24.5083 13.689 24.6827 13.7604 24.8643 13.7597C25.0459 13.7589 25.2198 13.6861 25.3477 13.5572L27.8444 11.0527L25.3477 8.55606Z" fill="#D4962B"/>
<path d="M19.0559 11.7209C19.2375 11.7209 19.4116 11.6488 19.5399 11.5204C19.6683 11.392 19.7404 11.218 19.7404 11.0364C19.7404 10.8549 19.6683 10.6808 19.5399 10.5525C19.4116 10.4241 19.2375 10.352 19.0559 10.352H18.6048C18.4233 10.352 18.2492 10.4241 18.1208 10.5525C17.9925 10.6808 17.9204 10.8549 17.9204 11.0364C17.9204 11.218 17.9925 11.392 18.1208 11.5204C18.2492 11.6488 18.4233 11.7209 18.6048 11.7209H19.0559Z" fill="#D4962B"/>
<path d="M17.033 11.099C17.0362 11.0103 17.0214 10.9218 16.9896 10.8389C16.9578 10.7559 16.9096 10.6803 16.8478 10.6164C16.7861 10.5525 16.7122 10.5017 16.6304 10.467C16.5487 10.4324 16.4607 10.4145 16.3719 10.4146H16.333C16.2432 10.4146 16.1541 10.4323 16.0711 10.4667C15.9881 10.5011 15.9126 10.5515 15.8491 10.6151C15.7855 10.6786 15.7351 10.7541 15.7007 10.8371C15.6663 10.9201 15.6486 11.0091 15.6486 11.099C15.6486 11.1889 15.6663 11.2779 15.7007 11.3609C15.7351 11.444 15.7855 11.5194 15.8491 11.583C15.9126 11.6466 15.9881 11.697 16.0711 11.7314C16.1541 11.7658 16.2432 11.7835 16.333 11.7835C16.5154 11.7816 16.69 11.7093 16.8205 11.5818C16.9509 11.4543 17.027 11.2813 17.033 11.099V11.099Z" fill="#D4962B"/>
<path d="M23.6134 18.3944C23.6134 18.4955 23.6134 18.5967 23.6134 18.6978C23.6386 19.4717 23.3567 20.2241 22.8293 20.7909C22.3018 21.3577 21.5715 21.6929 20.7978 21.7233H5.66226C4.5688 21.6848 3.53512 21.2147 2.78737 20.4159C2.03962 19.6171 1.63868 18.5547 1.67226 17.4611C1.64494 16.3715 2.04868 15.315 2.79577 14.5213C3.54286 13.7277 4.57295 13.2608 5.66226 13.2222H6.93004L7.00004 12.5378C7.17292 10.8639 7.94825 9.31001 9.18165 8.16532C10.415 7.02064 12.0224 6.36324 13.7045 6.31555H13.7667C14.7544 6.33327 15.7256 6.57236 16.6086 7.01523C17.4916 7.45809 18.264 8.09343 18.8689 8.87444H20.7123C20.0048 7.65618 18.9957 6.64056 17.7819 5.9254C16.5682 5.21023 15.1907 4.8196 13.7823 4.79111H13.6967C11.7651 4.83536 9.90762 5.5429 8.43609 6.7949C6.96456 8.0469 5.96865 9.76712 5.6156 11.6667C4.13155 11.7234 2.72921 12.361 1.71081 13.442C0.692406 14.5229 0.139466 15.9608 0.171152 17.4455C0.137722 18.9414 0.698495 20.3894 1.73064 21.4726C2.76278 22.5558 4.18214 23.1857 5.67782 23.2244H20.8212C21.4054 23.2103 21.9812 23.0812 22.5156 22.8445C23.05 22.6077 23.5325 22.268 23.9355 21.8448C24.3385 21.4215 24.6542 20.923 24.8645 20.3777C25.0748 19.8323 25.1756 19.2509 25.1612 18.6667C25.1664 18.5656 25.1664 18.4644 25.1612 18.3633L23.6134 18.3944Z" fill="#2B78D4"/>
</svg>
