<svg width="44" height="44" viewBox="0 0 44 44" fill="none" xmlns="http://www.w3.org/2000/svg">
<rect width="44" height="44" rx="9" fill="#F5F5F5"/>
<path d="M22.0778 16.5556C19.0445 16.5556 16.6334 18.9667 16.6334 22C16.6334 25.0334 19.0445 27.4445 22.0778 27.4445C25.1112 27.4445 27.5223 25.0334 27.5223 22C27.5223 18.9667 25.1112 16.5556 22.0778 16.5556ZM22.0778 25.8889C19.9001 25.8889 18.1889 24.1778 18.1889 22C18.1889 19.8223 19.9001 18.1112 22.0778 18.1112C24.2556 18.1112 25.9667 19.8223 25.9667 22C25.9667 24.1778 24.2556 25.8889 22.0778 25.8889Z" fill="#D4962B"/>
<path d="M33.5112 19.4334L31.3334 18.7334L30.8667 17.5667L31.9556 15.5445C32.1889 15.0778 32.1112 14.4556 31.7223 14.0667L29.8556 12.2C29.4667 11.8112 28.8445 11.7334 28.3778 11.9667L26.3556 13.0556L25.1889 12.5889L24.4889 10.4112C24.3334 9.94449 23.8667 9.5556 23.3223 9.5556H20.6778C20.1334 9.5556 19.6667 9.94449 19.5889 10.4889L18.8889 12.6667C18.4223 12.7445 18.0334 12.9 17.6445 13.1334L15.6223 12.0445C15.1556 11.8112 14.5334 11.8889 14.1445 12.2778L12.2778 14.1445C11.8889 14.5334 11.8112 15.1556 12.0445 15.6223L13.0556 17.5667C12.9 17.9556 12.7445 18.4223 12.5889 18.8112L10.4112 19.5112C9.94449 19.6667 9.5556 20.1334 9.5556 20.6778V23.3223C9.5556 23.8667 9.94449 24.3334 10.4889 24.4889L12.6667 25.1889L13.1334 26.3556L12.0445 28.3778C11.8112 28.8445 11.8889 29.4667 12.2778 29.8556L14.1445 31.7223C14.5334 32.1112 15.1556 32.1889 15.6223 31.9556L17.6445 30.8667L18.8112 31.3334L19.5112 33.5889C19.6667 34.0556 20.1334 34.4445 20.6778 34.4445H23.3223C23.8667 34.4445 24.3334 34.0556 24.4889 33.5889L25.1889 31.3334L26.3556 30.8667L28.3778 31.9556C28.8445 32.1889 29.4667 32.1112 29.8556 31.7223L31.7223 29.8556C32.1112 29.4667 32.1889 28.8445 31.9556 28.3778L30.8667 26.3556L31.3334 25.1889L33.5889 24.4889C34.0556 24.3334 34.4445 23.8667 34.4445 23.3223V20.6778C34.4445 20.1334 34.0556 19.5889 33.5112 19.4334ZM32.8889 23.0889L30.0889 23.9445L30.0112 24.3334C29.7778 24.8778 29.5445 25.4223 29.3112 25.9667L29.0778 26.3556L30.4778 28.9223L28.9223 30.4778L26.3556 29.0778L25.9667 29.3112C25.4223 29.6223 24.8778 29.8556 24.3334 30.0112L23.9445 30.0889L23.0889 32.8889H20.9112L20.0556 30.0889L19.6667 30.0112C19.1223 29.7778 18.5778 29.5445 18.0334 29.3112L17.6445 29.0778L15.0778 30.4778L13.5223 28.9223L14.9223 26.3556L14.6889 25.9667C14.3778 25.4223 14.1445 24.8778 13.9889 24.3334L13.9112 23.9445L11.1112 23.0889V20.9112L13.7556 20.1334L13.9112 19.7445C14.0667 19.1223 14.3 18.5778 14.6112 18.0334L14.8445 17.6445L13.5223 15.0778L15.0778 13.5223L17.5667 14.9223L17.9556 14.6889C18.5 14.3778 19.0445 14.1445 19.6667 13.9889L20.0556 13.8334L20.9112 11.1112H23.0889L23.9445 13.8334L24.3334 13.9889C24.8778 14.1445 25.4223 14.3778 25.9667 14.6889L26.3556 14.9223L28.9223 13.5223L30.4778 15.0778L29.0778 17.6445L29.3112 18.0334C29.6223 18.5778 29.8556 19.1223 30.0112 19.6667L30.0889 20.0556L32.8889 20.9112V23.0889Z" fill="#2B78D4"/>
</svg>
