<svg width="44" height="44" viewBox="0 0 44 44" fill="none" xmlns="http://www.w3.org/2000/svg">
<rect width="44" height="44" rx="9" fill="#F5F5F5"/>
<path d="M22 9.9444C15.14 9.9444 9.5556 14.8288 9.5556 20.8333C9.5556 26.8377 15.14 31.7222 22 31.7222C23.2835 31.7207 24.5606 31.5427 25.7956 31.1933L30.0967 33.9311C30.2141 34.0064 30.3497 34.0488 30.4891 34.0537C30.6285 34.0587 30.7667 34.026 30.8892 33.9592C31.0116 33.8924 31.1139 33.7939 31.1852 33.674C31.2565 33.5541 31.2943 33.4172 31.2945 33.2777V28.0433C32.2677 27.1097 33.0443 25.9909 33.5786 24.7526C34.1129 23.5144 34.3941 22.1818 34.4056 20.8333C34.4445 14.8288 28.86 9.9444 22 9.9444ZM30.0034 27.1411C29.9252 27.2136 29.8627 27.3014 29.8199 27.3991C29.7771 27.4968 29.7548 27.6022 29.7545 27.7088V31.8622L26.3478 29.6922C26.2528 29.6321 26.1459 29.5934 26.0344 29.5786C25.923 29.5638 25.8097 29.5734 25.7023 29.6066C24.5035 29.9789 23.2553 30.1677 22 30.1666C15.9956 30.1666 11.1112 25.9822 11.1112 20.8333C11.1112 15.6844 15.9956 11.5 22 11.5C28.0045 11.5 32.8889 15.6844 32.8889 20.8333C32.8712 22.0272 32.6056 23.2045 32.1088 24.2903C31.6121 25.3762 30.8951 26.3469 30.0034 27.1411Z" fill="#2B78D4"/>
<path d="M27.4445 20.0556H16.5556C16.3493 20.0556 16.1515 20.1375 16.0056 20.2834C15.8597 20.4293 15.7778 20.6271 15.7778 20.8334C15.7778 21.0397 15.8597 21.2375 16.0056 21.3834C16.1515 21.5292 16.3493 21.6112 16.5556 21.6112H27.4445C27.6507 21.6112 27.8486 21.5292 27.9944 21.3834C28.1403 21.2375 28.2222 21.0397 28.2222 20.8334C28.2222 20.6271 28.1403 20.4293 27.9944 20.2834C27.8486 20.1375 27.6507 20.0556 27.4445 20.0556Z" fill="#D4962B"/>
<path d="M24.9167 23.9444H19.0834C18.8771 23.9444 18.6793 24.0263 18.5334 24.1722C18.3875 24.3181 18.3056 24.5159 18.3056 24.7222C18.3056 24.9285 18.3875 25.1263 18.5334 25.2721C18.6793 25.418 18.8771 25.5 19.0834 25.5H24.9167C25.123 25.5 25.3208 25.418 25.4667 25.2721C25.6126 25.1263 25.6945 24.9285 25.6945 24.7222C25.6945 24.5159 25.6126 24.3181 25.4667 24.1722C25.3208 24.0263 25.123 23.9444 24.9167 23.9444Z" fill="#D4962B"/>
<path d="M16.7733 17.7222H27.2267C27.4329 17.7222 27.6308 17.6403 27.7766 17.4944C27.9225 17.3485 28.0044 17.1507 28.0044 16.9444C28.0044 16.7382 27.9225 16.5403 27.7766 16.3945C27.6308 16.2486 27.4329 16.1667 27.2267 16.1667H16.7733C16.567 16.1667 16.3692 16.2486 16.2234 16.3945C16.0775 16.5403 15.9955 16.7382 15.9955 16.9444C15.9955 17.1507 16.0775 17.3485 16.2234 17.4944C16.3692 17.6403 16.567 17.7222 16.7733 17.7222Z" fill="#D4962B"/>
</svg>
