<svg width="32" height="32" viewBox="0 0 32 32" fill="none" xmlns="http://www.w3.org/2000/svg">
<path d="M16 30.4711C16.5599 30.4582 17.0973 30.2477 17.517 29.8768C17.9367 29.5059 18.2117 28.9985 18.2933 28.4444H13.6178C13.7017 29.0136 13.9896 29.5329 14.4278 29.9057C14.866 30.2785 15.4247 30.4794 16 30.4711Z" fill="#2B78D4"/>
<path d="M28.7 27.0111V25.2301L28.567 25.1127L28.5652 25.1111C27.6742 24.3173 26.8944 23.4069 26.2467 22.4047L26.233 22.3835L26.2215 22.361C25.5105 20.9706 25.0843 19.4523 24.9681 17.895L24.9667 17.8764V17.8578V13.4684C24.9639 13.0728 24.9357 12.678 24.8822 12.2863C23.4011 11.9056 22.0773 11.06 21.1082 9.86918C20.0651 8.58755 19.497 6.98485 19.5 5.33241M28.7 27.0111L19.5 5.33241M28.7 27.0111H3.21112V25.2301L3.34415 25.1127L3.34419 25.1127L3.34935 25.108C4.22696 24.3116 4.99419 23.4015 5.63067 22.4018L5.64333 22.382L5.65407 22.361C6.36507 20.9706 6.79122 19.4523 6.90751 17.895L6.9089 17.8764V17.8578L6.9089 13.4666L6.9089 13.4654C6.90361 11.2663 7.69412 9.13946 9.13448 7.47762C10.5748 5.81579 12.5678 4.73115 14.7454 4.42397L15.1756 4.36329V3.92887V2.76443C15.1756 2.58231 15.2479 2.40765 15.3767 2.27888M28.7 27.0111L15.0231 1.92533L15.3767 2.27888M19.5 5.33241V5.33222V5.33113V5.33003V5.32894V5.32785V5.32675V5.32566V5.32456V5.32347V5.32238V5.32128V5.32019V5.3191V5.318V5.31691V5.31581V5.31472V5.31363V5.31253V5.31144V5.31035V5.30925V5.30816V5.30706V5.30597V5.30488V5.30378V5.30269V5.3016V5.3005V5.29941V5.29831V5.29722V5.29613V5.29503V5.29394V5.29285V5.29175V5.29066V5.28956V5.28847V5.28738V5.28628V5.28519V5.2841V5.283V5.28191V5.28081V5.27972V5.27863V5.27753V5.27644V5.27535V5.27425V5.27316V5.27206V5.27097V5.26988V5.26878V5.26769V5.2666V5.2655V5.26441V5.26331V5.26222V5.26113V5.26003V5.25894V5.25785V5.25675V5.25566V5.25456V5.25347V5.25238V5.25128V5.25019V5.2491V5.248V5.24691V5.24581V5.24472V5.24363V5.24253V5.24144V5.24035V5.23925V5.23816V5.23706V5.23597V5.23488V5.23378V5.23269V5.2316V5.2305V5.22941V5.22831V5.22722V5.22613V5.22503V5.22394V5.22285V5.22175V5.22066V5.21956V5.21847V5.21738V5.21628V5.21519V5.2141V5.213V5.21191V5.21081V5.20972V5.20863V5.20753V5.20644V5.20535V5.20425V5.20316V5.20206V5.20097V5.19988V5.19878V5.19769V5.1966V5.1955V5.19441V5.19331V5.19222V5.19113V5.19003V5.18894V5.18785V5.18675V5.18566V5.18456V5.18347V5.18238V5.18128V5.18019V5.1791V5.178V5.17691V5.17581V5.17472V5.17363V5.17253V5.17144V5.17035V5.16925V5.16816V5.16706V5.16597V5.16488V5.16378V5.16269V5.1616V5.1605V5.15941V5.15831V5.15722V5.15613V5.15503V5.15394V5.15285V5.15175V5.15066V5.14956V5.14847V5.14738V5.14628V5.14519V5.1441V5.143V5.14191V5.14081V5.13972V5.13863V5.13753V5.13644V5.13535V5.13425V5.13316V5.13206V5.13097V5.12988V5.12878V5.12769V5.1266V5.1255V5.12441V5.12331V5.12222V5.12113V5.12003V5.11894V5.11785V5.11675V5.11566V5.11456V5.11347V5.11238V5.11128V5.11019V5.1091V5.108V5.10691V5.10581V5.10472V5.10363V5.10253V5.10144V5.10035V5.09925V5.09816V5.09706V5.09597V5.09488V5.09378V5.09269V5.0916V5.0905V5.09049M19.5 5.33241V5.09049M19.5 5.09049C18.7018 4.7315 17.8544 4.49204 16.9852 4.38035L16.5489 4.32429V3.88443V2.76443C16.5489 2.58231 16.4766 2.40765 16.3478 2.27888L16.7013 1.92533L16.3478 2.27888C16.219 2.1501 16.0443 2.07776 15.8622 2.07776C15.6801 2.07776 15.5055 2.1501 15.3767 2.27888M19.5 5.09049L15.3767 2.27888" stroke="#2B78D4"/>
<path d="M26.6667 9.77774C29.1213 9.77774 31.1111 7.7879 31.1111 5.3333C31.1111 2.8787 29.1213 0.888855 26.6667 0.888855C24.2121 0.888855 22.2223 2.8787 22.2223 5.3333C22.2223 7.7879 24.2121 9.77774 26.6667 9.77774Z" fill="#D4962B"/>
</svg>
