<svg width="32" height="32" viewBox="0 0 32 32" fill="none" xmlns="http://www.w3.org/2000/svg">
<path d="M16 18.6667C15.7643 18.6667 15.5382 18.573 15.3715 18.4063C15.2048 18.2396 15.1111 18.0135 15.1111 17.7778V3.55558C15.1111 3.31983 15.2048 3.09374 15.3715 2.92704C15.5382 2.76034 15.7643 2.66669 16 2.66669C16.2358 2.66669 16.4618 2.76034 16.6285 2.92704C16.7952 3.09374 16.8889 3.31983 16.8889 3.55558V17.7778C16.8889 18.0135 16.7952 18.2396 16.6285 18.4063C16.4618 18.573 16.2358 18.6667 16 18.6667Z" fill="#D4962B"/>
<path d="M16 30.3555C13.0607 30.3627 10.2013 29.3984 7.86659 27.6126C5.53191 25.8267 3.85278 23.3194 3.09037 20.4806C2.32795 17.6418 2.52497 14.6306 3.65079 11.9154C4.77661 9.20016 6.76812 6.93303 9.3156 5.46662C9.51875 5.36035 9.7551 5.33668 9.97529 5.40056C10.1955 5.46444 10.3825 5.61092 10.4972 5.80941C10.6119 6.0079 10.6455 6.24305 10.591 6.46573C10.5364 6.68841 10.398 6.88141 10.2045 7.0044C8.00152 8.27629 6.27979 10.2395 5.30633 12.5897C4.33287 14.9398 4.16209 17.5455 4.82046 20.0026C5.47884 22.4597 6.92958 24.6309 8.9477 26.1794C10.9658 27.728 13.4385 28.5674 15.9823 28.5674C18.526 28.5674 20.9987 27.728 23.0168 26.1794C25.035 24.6309 26.4857 22.4597 27.1441 20.0026C27.8025 17.5455 27.6317 14.9398 26.6582 12.5897C25.6848 10.2395 23.963 8.27629 21.76 7.0044C21.6538 6.94883 21.5599 6.87235 21.484 6.77955C21.4081 6.68676 21.3518 6.57957 21.3184 6.46443C21.285 6.3493 21.2752 6.22859 21.2897 6.10958C21.3041 5.99058 21.3425 5.87572 21.4025 5.77193C21.4625 5.66814 21.5429 5.57756 21.6388 5.50563C21.7347 5.43371 21.8442 5.38192 21.9606 5.3534C22.077 5.32488 22.198 5.32021 22.3163 5.33967C22.4346 5.35912 22.5478 5.40231 22.6489 5.46662C25.1964 6.93303 27.1879 9.20016 28.3138 11.9154C29.4396 14.6306 29.6366 17.6418 28.8742 20.4806C28.1118 23.3194 26.4326 25.8267 24.0979 27.6126C21.7633 29.3984 18.9039 30.3627 15.9645 30.3555H16Z" fill="#2B78D4"/>
</svg>
